<?xml version="1.0" standalone="no"?><!DOCTYPE svg PUBLIC "-//W3C//DTD SVG 1.1//EN" "http://www.w3.org/Graphics/SVG/1.1/DTD/svg11.dtd"><svg t="1694150552439" class="icon" viewBox="0 0 1024 1024" version="1.1" xmlns="http://www.w3.org/2000/svg" p-id="2072" xmlns:xlink="http://www.w3.org/1999/xlink" width="256" height="256"><path d="M845.34672328 466.07393545a10.09394641 10.09394641 0 1 1-12.82801125-15.5896929l0.57995315-0.44186907c102.54123952-78.3627167 159.0314376-131.60793885 167.49599184-156.3664148C1009.22491217 268.30991275 1002.76257712 240.6930963 983.85886625 214.53997111c-16.68055713-23.12908379-41.71520126-42.55751417-63.98816375-50.63543298a10.09394641 10.09394641 0 0 1 6.90420412-18.97275291c26.1669336 9.48637645 54.47417047 31.45555395 73.4883486 57.80199686 22.36962133 31.01368489 30.3784981 65.28615411 19.41462196 97.47355369-10.39773139 30.30945606-67.86832645 84.47984157-174.3311539 165.86659968z" fill="#E16F1C" p-id="2073"></path><path d="M929.7575228 132.9875121c5.13672786 3.92158794 9.80396985 17.9509307 7.02847978 22.85291561-2.29219577 4.01824679-18.43422498 9.41733442-26.23597563 9.41733442-6.90420412 0-5.19196149-6.90420412-3.53495251-8.14696085 14.443595-10.93625932-8.83738127-6.0342744-1.87794352-21.81728501s19.48366402-6.28282575 24.62039188-2.30600417zM212.43833204 682.13409903a10.09394641 10.09394641 0 0 1-14.01553436-14.52644548L373.0991618 499.18649837a10.09394641 10.09394641 0 1 1 14.23646888 14.30551093l-0.22093453 0.22093453z" fill="#E16F1C" p-id="2074"></path><path d="M356.36337104 361.44762628h490.04659968l12.28948331 84.36937429-205.57958172 555.31894539a20.18789283 20.18789283 0 0 1-37.64172084 0.56614474z" fill="#FFCB6E" p-id="2075"></path><path d="M588.28939567 995.29498928l245.637774-631.83133541H337.63916947z m-280.31068709-652.01922823H863.43573807L607.11025608 1002.61344563a20.20170124 20.20170124 0 0 1-37.5864872 0.12427568z" fill="#E16F1C" p-id="2076"></path><path d="M464.17942248 684.86816385l341.66144486-198.84107852-20.51929464-30.46134856-331.78843296 202.79028328 10.64628274 26.5121438z" fill="#EDB652" p-id="2077"></path><path d="M484.85060961 359.88727615l136.59277423 542.51855096 18.25471567-35.95709504-121.43114198-498.9806398-33.41634792-7.58081612z" fill="#EDB652" p-id="2078"></path><path d="M314.85529589 349.18575977c-4.94341015-7.85698428-7.60843293-18.50326702-7.60843294-32.71211909 0-134.88053159 136.0680547-272.42608598 305.29009757-256.10454746s252.4867445 132.97497125 252.4867445 267.88311967c0 17.74380459-0.74565405 31.3865119-2.36123781 41.71520126q4.77770925 138.94020362-36.49562296 138.92639522c-44.9739856 0-37.28270222-110.99198535-80.15780977-104.33633259s-36.93749201 63.62914512-90.55554118 63.62914512-107.8989019-125.8222158-151.76821487-79.06694554-43.86931295 79.06694553-96.76932487 32.18739959-64.40241598 28.73529753-88.80187334 2.48551348q-22.6595979-24.38564893-3.25878433-74.60682966z" fill="#F1E0D2" p-id="2079"></path><path d="M826.18065265 515.79801348c-27.42349875 0-38.02835627-31.51078758-47.39045704-59.3761554-9.66588576-28.72148912-17.10861779-47.39045705-31.75933893-45.11206969-16.70817396 2.59598075-24.71705073 14.18123525-33.98249266 27.61681647-11.69572178 16.92910848-24.95179367 36.10898753-57.63629594 36.10898751-26.23597565 0-50.78732547-24.93798526-74.56540445-49.06127444C561.43204165 406.15925212 541.23034041 385.68138272 524.99165234 385.68138272h-0.22093454c-5.6890642 0.06904204-10.95006773 2.76168163-16.08679558 8.28504493-9.47256803 10.08013802-16.79102442 19.42843038-23.26716789 27.61681647-12.85562806 16.39058057-22.09345317 28.22438642-36.32992205 29.50856838-12.31710015 1.11848107-25.87695701-5.99284917-46.79669548-24.53754142-26.3464429-23.35001831-38.80162713-12.71754398-52.0024654-1.46369127-9.5416101 8.13315245-22.59055587 19.33177153-37.28270222 3.47971888-16.50104784-17.74380459-18.4480334-44.18690634-5.81333986-78.70792692-4.63962516-8.79595605-6.90420412-19.74602377-6.90420412-33.33349748 0-33.44396474 8.28504494-68.40685437 24.04043873-101.09135664a287.44963413 287.44963413 0 0 1 65.46566343-86.99297185 293.4286749 293.4286749 0 0 1 100.00049239-59.8870665 285.69596628 285.69596628 0 0 1 123.35051073-14.98212294c81.46960857 7.87079269 148.661323 39.61632322 194.24287857 91.81210634 42.18468714 48.3294288 64.48526643 111.57193851 64.48526643 182.94760063 0 17.9509307-0.77327086 31.69029689-2.34742939 42.12945351 2.48551348 73.66785792-4.69485881 118.17235763-21.9691775 136.04043789a28.99765728 28.99765728 0 0 1-21.37541594 9.29305875z m-76.37430591-118.4485258c23.63999488 0 33.3887311 28.99765728 42.06041148 54.73653022 9.83158667 29.21859182 18.04758955 49.90358735 34.30008603 49.90358735a15.2720995 15.2720995 0 0 0 11.51621247-5.16434468c9.8868203-10.2320305 21.04401413-40.50006133 18.07520636-126.62310347v-0.6489952l0.09665887-0.64899518c1.53273331-9.80396985 2.27838736-23.10146697 2.27838736-40.65195383 0-67.97879372-21.12686459-128.10060317-61.08839801-173.87547644-43.20650935-49.48933509-107.23609831-79.61928187-185.15694598-87.13105593a271.80470762 271.80470762 0 0 0-117.37146995 14.25027729 279.59264986 279.59264986 0 0 0-95.27801678 57.08395962 273.66884272 273.66884272 0 0 0-62.30353795 82.85044939c-14.83023043 30.82036717-22.67340631 63.71199557-22.67340631 95.09850747 0 12.53803467 2.14030326 22.09345317 6.5451855 28.99765729l1.85032671 2.92738255-1.25656516 3.23116753c-11.83380585 30.65466627-11.19861908 53.34188099 1.87794352 67.42645738 5.040069 5.41289603 7.08371342 4.90198492 18.19948205-4.58439152 13.80840823-11.81999745 34.79718875-29.68807769 70.1329054 1.62939216 17.03957575 15.1063986 28.61102185 21.8034766 36.3851557 21.1130562 8.28504494-0.74565405 15.5896929-10.10775483 26.71926992-24.27518168 6.64184436-8.46455425 14.16742685-18.06139796 24.04043873-28.58340504 7.74651701-8.28504494 16.48723943-12.42756741 26.00123269-12.5932683h0.23474295c21.9829859 0 43.26174299 21.6377757 65.76944839 44.54592495 21.72062615 22.09345317 44.18690634 44.93256038 64.65096735 44.93256039 25.43508797 0 35.10097372-13.97410913 46.27197597-30.14375518 9.66588576-14.01553437 20.71261235-29.89520382 43.22031775-33.4025395a31.524596 31.524596 0 0 1 4.90198494-0.40044384z" fill="#D4A8A8" p-id="2080"></path><path d="M326.37150835 363.68458842q-17.88188865-53.64566597 4.05967202-117.90999789C371.4007276 125.72428937 492.84567798 61.40472383 597.47198713 65.32631177A277.68708951 277.68708951 0 0 1 705.88180015 92.01796489q-14.48502023 114.6097883-102.88644972 179.50930699t-276.62384208 92.15731654z" fill="#FFEEE1" p-id="2081"></path><path d="M545.0828863 241.35589989m-9.08593261 0a9.08593262 9.08593262 0 1 0 18.17186524 0 9.08593262 9.08593262 0 1 0-18.17186524 0Z" fill="#774949" p-id="2082"></path><path d="M523.21036767 833.432828l166.80557143-103.05215062 15.47922562-37.91788901-193.35914045 113.00801296 11.0743434 27.96202667z" fill="#EDB652" p-id="2083"></path><path d="M639.94665086 241.35589989m-9.08593262 0a9.08593262 9.08593262 0 1 0 18.17186523 0 9.08593262 9.08593262 0 1 0-18.17186523 0Z" fill="#774949" p-id="2084"></path><path d="M551.14477752 235.29400868m-3.02404138 0a3.02404141 3.02404141 0 1 0 6.04808279 0 3.02404141 3.02404141 0 1 0-6.04808279 0Z" fill="#FFFFFF" p-id="2085"></path><path d="M643.99251446 233.27798108m-3.02404141 0a3.02404141 3.02404141 0 1 0 6.04808282 0 3.02404141 3.02404141 0 1 0-6.04808282 0Z" fill="#FFFFFF" p-id="2086"></path><path d="M682.40750616 73.33518854c11.69572178-52.14054948 120.13315161-90.7626673 146.68672064-63.51867785s0 127.03735571-20.57452826 143.13795971-26.23597565 22.63198109-70.85094264-11.04672657-66.95697152-16.43200579-55.26124974-68.57255529z" fill="#E96868" p-id="2087"></path><path d="M802.00212985 65.2158445c2.1817285 0 2.76168163-1.38084082 3.83873749-3.45210206s2.1817285-4.91579333 0-4.91579332-6.29663415 2.66502278-6.29663416 4.91579332 0.23474293 3.45210207 2.45789667 3.45210206zM763.64237178 55.1218981c2.1817285 0 2.76168163-1.38084082 3.8525459-3.45210207s2.1817285-4.91579333 0-4.91579333-6.29663415 2.66502278-6.29663415 4.91579333 0.27616816 3.45210207 2.44408825 3.45210207zM802.00212985 107.59384937c2.1817285 0 2.76168163-1.38084082 3.83873749-3.43829365s2.1817285-4.92960174 0-4.92960175-6.29663415 2.6788312-6.29663416 4.92960175 0.23474293 3.43829365 2.45789667 3.43829365zM765.67220779 91.45182015c2.1679201 0 2.76168163-1.38084082 3.83873748-3.43829365s2.1817285-4.92960174 0-4.92960173-6.29663415 2.66502278-6.29663414 4.92960173 0.27616816 3.43829365 2.45789666 3.43829365zM721.26436692 81.35787373c2.1817285 0 2.76168163-1.38084082 3.83873749-3.43829366s2.1817285-4.92960174 0-4.92960172-6.29663415 2.66502278-6.29663416 4.92960172 0.27616816 3.43829365 2.45789667 3.43829366zM773.73631819 26.85608644c2.1817285 0 2.76168163-1.38084082 3.8525459-3.43829364s2.1679201-4.92960174 0-4.92960174-6.29663415 2.6788312-6.29663415 4.92960174 0.27616816 3.43829365 2.44408825 3.43829364zM781.82804542 139.89171621c2.1817285 0 2.76168163-1.38084082 3.83873748-3.43829365s2.1817285-4.92960174 0-4.92960173-6.29663415 2.66502278-6.29663414 4.92960173 0.26235975 3.43829365 2.45789666 3.43829365zM729.35609415 107.59384937c2.1679201 0 2.76168163-1.38084082 3.83873748-3.43829365s2.1817285-4.92960174 0-4.92960175-6.29663415 2.6788312-6.29663415 4.92960175 0.26235975 3.43829365 2.45789667 3.43829365zM810.06624025 22.82403123c2.1817285 0 2.76168163-1.38084082 3.8525459-3.43829365s2.1817285-4.92960174 0-4.92960173-6.29663415 2.66502278-6.29663416 4.92960173 0.27616816 3.43829365 2.44408826 3.43829365z" fill="#CF4141" p-id="2088"></path><path d="M605.4532471 275.33839255c0 6.08950803-4.33584018 15.06497337-14.91308088 15.06497338s-14.87165566-10.75675002-14.83023045-15.06497338 0-10.35630617 14.83023045-10.35630617 14.91308089 4.26679813 14.91308088 10.35630617z" fill="#CF4141" p-id="2089"></path><path d="M135.59454024 565.09403085q-11.50240406-20.56071985-13.28368872-35.28048302c-1.76747625-14.70595476 39.11922052-31.05511011 1.07705585-82.61570644s-62.77302382-57.29108575-86.99297185-46.67241982S8.55718452 422.2184309 7.07968483 442.71010871s12.08235719 104.66773438 68.9453823 102.59647316c22.01060272-0.80088767 24.0128219 2.88595731 36.2332632 24.05424713q6.46233505 11.18481067 143.16557654 258.57625251a10.66009117 10.66009117 0 0 0 14.48502023 4.14252249l0.1657009-0.09665887 0.84231289-0.48329428a10.10775483 10.10775483 0 0 0 3.79731228-13.61509052z" fill="#6EC0FF" p-id="2090"></path><path d="M211.0436828 659.91637018c14.04315117 7.34607318 6.90420412 34.17581037-4.58439153 32.17359117-4.90198492-0.85612131-1.62939218-10.13537164-6.17235848-9.2516335-15.39637518 2.99642459-26.0150411 14.36074457-28.88719002 0-3.43829365-17.24670189 25.58698045-30.28183925 39.64394003-22.92195767z" fill="#E16F1C" p-id="2091"></path><path d="M580.72238795 287.64168429c-1.72605102 0.92516335-2.58217234 3.8525459-2.59598074 8.80976445 0 7.44273203-0.84231291 8.49217106-1.64320059 10.63247432s-2.66502278 6.68326959 0.52471952 8.28504494 12.67611875 2.76168163 10.81198364-7.069905-1.38084082-7.7189002-2.02983601-10.95006774 3.81112067-1.38084082 5.59240533-4.80532607c0.59376157-1.14609788 0.98039698-1.65700898 1.62939218-1.64320056h1.69843422c-0.53852791-0.63518678-2.56836393-1.73985943-6.11712486-3.28640116a14.08457639 14.08457639 0 0 0-8.71310559-1.38084082q0.1657009 0.34521021 0.37282702 0.70422882c0.09665887 0.15189248 0.24855135 0.40044384 0.46948588 0.70422882z" fill="#FFFFFF" p-id="2092"></path></svg>